<?xml version="1.0" standalone="no"?>
<!DOCTYPE svg PUBLIC "-//W3C//DTD SVG 20010904//EN"
 "http://www.w3.org/TR/2001/REC-SVG-20010904/DTD/svg10.dtd">
<svg version="1.0" xmlns="http://www.w3.org/2000/svg"
 width="2077.000000pt" height="2077.000000pt" viewBox="0 0 2077.000000 2077.000000"
 preserveAspectRatio="xMidYMid meet">
<metadata>
Created by potrace 1.11, written by Peter Selinger 2001-2013
</metadata>
<g transform="translate(0.000000,2077.000000) scale(0.100000,-0.100000)"
fill="#000000" stroke="none">
<path d="M2663 20755 c-567 -65 -1089 -283 -1543 -643 -125 -100 -367 -341
-468 -469 -364 -460 -581 -995 -642 -1583 -14 -134 -14 -15211 0 -15351 121
-1229 981 -2258 2170 -2598 151 -43 372 -85 529 -101 149 -15 15208 -14 15357
1 572 56 1121 280 1577 641 132 106 373 346 475 475 263 334 451 709 561 1123
29 108 68 327 80 454 15 149 16 15208 1 15357 -121 1229 -981 2258 -2170 2598
-151 43 -372 85 -529 101 -167 16 -15253 11 -15398 -5z m10616 -6855 c189 -12
325 -37 397 -73 57 -29 116 -89 140 -144 10 -21 270 -1037 578 -2258 309
-1221 566 -2220 571 -2220 5 0 246 994 536 2209 439 1834 534 2220 561 2274
88 177 270 221 913 222 447 0 698 -26 812 -83 65 -33 124 -101 152 -174 26
-66 1591 -6066 1621 -6215 23 -112 26 -225 6 -271 -29 -70 -106 -111 -236
-126 -245 -28 -879 -20 -1005 14 -121 32 -149 69 -189 255 -44 202 -1186 5184
-1194 5210 -10 30 76 383 -657 -2672 -338 -1413 -624 -2593 -636 -2623 -35
-95 -100 -141 -237 -171 -98 -21 -447 -36 -672 -29 -353 11 -470 34 -544 108
-23 23 -49 62 -58 87 -10 25 -310 1226 -668 2670 -357 1444 -653 2632 -656
2640 -5 12 -8 11 -15 -5 -4 -11 -279 -1199 -609 -2640 -331 -1441 -608 -2642
-617 -2668 -44 -139 -158 -178 -553 -192 -216 -7 -534 8 -602 28 -141 43 -173
136 -127 374 11 59 380 1474 821 3142 581 2204 808 3052 831 3098 33 69 82
120 146 152 85 44 252 76 441 84 166 8 601 6 749 -3z m-10977 -40 c174 -14
250 -46 287 -118 10 -21 29 -82 40 -137 58 -266 1193 -5213 1200 -5230 7 -17
10 -14 19 20 6 22 290 1208 632 2635 434 1810 630 2613 650 2656 65 143 170
172 650 181 668 12 806 -27 870 -246 10 -36 308 -1234 661 -2661 353 -1427
644 -2597 646 -2599 1 -2 6 -1 10 2 3 4 280 1200 616 2659 385 1677 617 2670
631 2698 57 115 217 150 686 150 262 -1 396 -10 469 -35 61 -20 117 -78 127
-131 10 -54 -3 -185 -30 -304 -13 -58 -380 -1455 -815 -3105 -505 -1912 -802
-3022 -820 -3061 -69 -148 -197 -209 -493 -235 -191 -17 -935 -7 -1055 15
-184 32 -267 81 -320 186 -26 52 -146 515 -588 2270 -306 1213 -558 2212 -562
2220 -4 12 -7 11 -14 -5 -5 -11 -234 -963 -509 -2115 -276 -1152 -512 -2139
-525 -2192 -60 -246 -137 -320 -379 -366 -79 -15 -160 -17 -601 -17 -438 0
-524 3 -607 18 -119 21 -195 49 -251 91 -89 67 -54 -57 -812 2856 -383 1471
-739 2837 -790 3035 -52 198 -104 404 -115 459 -25 121 -26 235 -4 283 34 71
120 110 274 122 139 12 686 12 822 1z"/>
</g>
</svg>
